<svg width="600" height="400" viewBox="0 0 600 400" fill="none" xmlns="http://www.w3.org/2000/svg">
<rect width="600" height="400" fill="#EDEDED"/>
<rect width="600" height="30" fill="#D9D9D9"/>
<circle cx="13" cy="15" r="4.5" fill="#DADADA" stroke="#8E8E8E"/>
<circle cx="52" cy="15" r="4.5" fill="#DADADA" stroke="#8E8E8E"/>
<circle cx="32" cy="15" r="4.5" fill="#DADADA" stroke="#8E8E8E"/>
<path d="M126.85 73.7324C126.85 73.4316 126.742 73.1973 126.527 73.0293C126.316 72.8613 125.943 72.6875 125.408 72.5078C124.873 72.3281 124.436 72.1543 124.096 71.9863C122.99 71.4434 122.438 70.6973 122.438 69.748C122.438 69.2754 122.574 68.8594 122.848 68.5C123.125 68.1367 123.516 67.8555 124.02 67.6562C124.523 67.4531 125.09 67.3516 125.719 67.3516C126.332 67.3516 126.881 67.4609 127.365 67.6797C127.854 67.8984 128.232 68.2109 128.502 68.6172C128.771 69.0195 128.906 69.4805 128.906 70H126.855C126.855 69.6523 126.748 69.3828 126.533 69.1914C126.322 69 126.035 68.9043 125.672 68.9043C125.305 68.9043 125.014 68.9863 124.799 69.1504C124.588 69.3105 124.482 69.5156 124.482 69.7656C124.482 69.9844 124.6 70.1836 124.834 70.3633C125.068 70.5391 125.48 70.7227 126.07 70.9141C126.66 71.1016 127.145 71.3047 127.523 71.5234C128.445 72.0547 128.906 72.7871 128.906 73.7207C128.906 74.4668 128.625 75.0527 128.062 75.4785C127.5 75.9043 126.729 76.1172 125.748 76.1172C125.057 76.1172 124.43 75.9941 123.867 75.748C123.309 75.498 122.887 75.1582 122.602 74.7285C122.32 74.2949 122.18 73.7969 122.18 73.2344H124.242C124.242 73.6914 124.359 74.0293 124.594 74.248C124.832 74.4629 125.217 74.5703 125.748 74.5703C126.088 74.5703 126.355 74.498 126.551 74.3535C126.75 74.2051 126.85 73.998 126.85 73.7324ZM136.652 67.4688V73.0527C136.652 73.6855 136.518 74.2344 136.248 74.6992C135.979 75.1602 135.592 75.5117 135.088 75.7539C134.584 75.9961 133.988 76.1172 133.301 76.1172C132.262 76.1172 131.443 75.8477 130.846 75.3086C130.248 74.7695 129.943 74.0312 129.932 73.0938V67.4688H132V73.1348C132.023 74.0684 132.457 74.5352 133.301 74.5352C133.727 74.5352 134.049 74.418 134.268 74.1836C134.486 73.9492 134.596 73.5684 134.596 73.041V67.4688H136.652ZM137.941 76V67.4688H141.006C142.104 67.4688 142.938 67.6699 143.508 68.0723C144.082 68.4746 144.369 69.0586 144.369 69.8242C144.369 70.2656 144.268 70.6426 144.064 70.9551C143.861 71.2676 143.562 71.498 143.168 71.6465C143.613 71.7637 143.955 71.9824 144.193 72.3027C144.432 72.623 144.551 73.0137 144.551 73.4746C144.551 74.3105 144.285 74.9395 143.754 75.3613C143.227 75.7793 142.443 75.9922 141.404 76H137.941ZM139.998 72.373V74.418H141.346C141.717 74.418 142.002 74.334 142.201 74.166C142.4 73.9941 142.5 73.7539 142.5 73.4453C142.5 72.7344 142.146 72.377 141.439 72.373H139.998ZM139.998 71.0254H141.07C141.52 71.0215 141.84 70.9395 142.031 70.7793C142.223 70.6191 142.318 70.3828 142.318 70.0703C142.318 69.7109 142.215 69.4531 142.008 69.2969C141.801 69.1367 141.467 69.0566 141.006 69.0566H139.998V71.0254ZM152.221 69.0566H149.66V76H147.604V69.0566H145.09V67.4688H152.221V69.0566ZM155.285 76H153.234V67.4688H155.285V76ZM163.236 69.0566H160.676V76H158.619V69.0566H156.105V67.4688H163.236V69.0566ZM166.166 74.418H169.746V76H164.109V67.4688H166.166V74.418ZM175.904 72.3848H172.67V74.418H176.49V76H170.613V67.4688H176.502V69.0566H172.67V70.8555H175.904V72.3848ZM181.729 73.7324C181.729 73.4316 181.621 73.1973 181.406 73.0293C181.195 72.8613 180.822 72.6875 180.287 72.5078C179.752 72.3281 179.314 72.1543 178.975 71.9863C177.869 71.4434 177.316 70.6973 177.316 69.748C177.316 69.2754 177.453 68.8594 177.727 68.5C178.004 68.1367 178.395 67.8555 178.898 67.6562C179.402 67.4531 179.969 67.3516 180.598 67.3516C181.211 67.3516 181.76 67.4609 182.244 67.6797C182.732 67.8984 183.111 68.2109 183.381 68.6172C183.65 69.0195 183.785 69.4805 183.785 70H181.734C181.734 69.6523 181.627 69.3828 181.412 69.1914C181.201 69 180.914 68.9043 180.551 68.9043C180.184 68.9043 179.893 68.9863 179.678 69.1504C179.467 69.3105 179.361 69.5156 179.361 69.7656C179.361 69.9844 179.479 70.1836 179.713 70.3633C179.947 70.5391 180.359 70.7227 180.949 70.9141C181.539 71.1016 182.023 71.3047 182.402 71.5234C183.324 72.0547 183.785 72.7871 183.785 73.7207C183.785 74.4668 183.504 75.0527 182.941 75.4785C182.379 75.9043 181.607 76.1172 180.627 76.1172C179.936 76.1172 179.309 75.9941 178.746 75.748C178.188 75.498 177.766 75.1582 177.48 74.7285C177.199 74.2949 177.059 73.7969 177.059 73.2344H179.121C179.121 73.6914 179.238 74.0293 179.473 74.248C179.711 74.4629 180.096 74.5703 180.627 74.5703C180.967 74.5703 181.234 74.498 181.43 74.3535C181.629 74.2051 181.729 73.998 181.729 73.7324Z" fill="black"/>
<rect x="53" y="92" width="78" height="16" fill="#C4C4C4"/>
<rect x="98" y="116" width="78" height="16" fill="#C4C4C4"/>
<rect x="53" y="140" width="78" height="16" fill="#C4C4C4"/>
<rect x="175" y="164" width="78" height="16" fill="#C4C4C4"/>
<rect x="141" y="92" width="67" height="16" fill="#C4C4C4"/>
<rect x="53" y="164" width="67" height="16" fill="#C4C4C4"/>
<rect x="186" y="140" width="67" height="16" fill="#C4C4C4"/>
<rect x="186" y="116" width="67" height="16" fill="#C4C4C4"/>
<rect x="218" y="92" width="35" height="16" fill="#C4C4C4"/>
<rect x="53" y="116" width="35" height="16" fill="#C4C4C4"/>
<rect x="141" y="140" width="35" height="16" fill="#C4C4C4"/>
<rect x="130" y="164" width="35" height="16" fill="#C4C4C4"/>
<rect x="53" y="188" width="78" height="16" fill="#C4C4C4"/>
<rect x="98" y="212" width="78" height="16" fill="#C4C4C4"/>
<rect x="53" y="236" width="78" height="16" fill="#C4C4C4"/>
<rect x="175" y="260" width="78" height="16" fill="#C4C4C4"/>
<rect x="141" y="188" width="67" height="16" fill="#C4C4C4"/>
<rect x="53" y="260" width="67" height="16" fill="#C4C4C4"/>
<rect x="186" y="236" width="67" height="16" fill="#C4C4C4"/>
<rect x="186" y="212" width="67" height="16" fill="#C4C4C4"/>
<rect x="218" y="188" width="35" height="16" fill="#C4C4C4"/>
<rect x="53" y="212" width="35" height="16" fill="#C4C4C4"/>
<rect x="141" y="236" width="35" height="16" fill="#C4C4C4"/>
<rect x="130" y="260" width="35" height="16" fill="#C4C4C4"/>
<rect x="53" y="284" width="78" height="16" fill="#C4C4C4"/>
<rect x="98" y="308" width="78" height="16" fill="#C4C4C4"/>
<rect x="53" y="332" width="78" height="16" fill="#C4C4C4"/>
<rect x="175" y="356" width="78" height="16" fill="#C4C4C4"/>
<rect x="141" y="284" width="67" height="16" fill="#C4C4C4"/>
<rect x="53" y="356" width="67" height="16" fill="#C4C4C4"/>
<rect x="186" y="332" width="67" height="16" fill="#C4C4C4"/>
<rect x="186" y="308" width="67" height="16" fill="#C4C4C4"/>
<rect x="218" y="284" width="35" height="16" fill="#C4C4C4"/>
<rect x="53" y="308" width="35" height="16" fill="#C4C4C4"/>
<rect x="141" y="332" width="35" height="16" fill="#C4C4C4"/>
<rect x="130" y="356" width="35" height="16" fill="#C4C4C4"/>
<path d="M436.934 73.7324C436.934 73.4316 436.826 73.1973 436.611 73.0293C436.4 72.8613 436.027 72.6875 435.492 72.5078C434.957 72.3281 434.52 72.1543 434.18 71.9863C433.074 71.4434 432.521 70.6973 432.521 69.748C432.521 69.2754 432.658 68.8594 432.932 68.5C433.209 68.1367 433.6 67.8555 434.104 67.6562C434.607 67.4531 435.174 67.3516 435.803 67.3516C436.416 67.3516 436.965 67.4609 437.449 67.6797C437.938 67.8984 438.316 68.2109 438.586 68.6172C438.855 69.0195 438.99 69.4805 438.99 70H436.939C436.939 69.6523 436.832 69.3828 436.617 69.1914C436.406 69 436.119 68.9043 435.756 68.9043C435.389 68.9043 435.098 68.9863 434.883 69.1504C434.672 69.3105 434.566 69.5156 434.566 69.7656C434.566 69.9844 434.684 70.1836 434.918 70.3633C435.152 70.5391 435.564 70.7227 436.154 70.9141C436.744 71.1016 437.229 71.3047 437.607 71.5234C438.529 72.0547 438.99 72.7871 438.99 73.7207C438.99 74.4668 438.709 75.0527 438.146 75.4785C437.584 75.9043 436.812 76.1172 435.832 76.1172C435.141 76.1172 434.514 75.9941 433.951 75.748C433.393 75.498 432.971 75.1582 432.686 74.7285C432.404 74.2949 432.264 73.7969 432.264 73.2344H434.326C434.326 73.6914 434.443 74.0293 434.678 74.248C434.916 74.4629 435.301 74.5703 435.832 74.5703C436.172 74.5703 436.439 74.498 436.635 74.3535C436.834 74.2051 436.934 73.998 436.934 73.7324ZM446.947 73.1113C446.92 73.7051 446.76 74.2305 446.467 74.6875C446.174 75.1406 445.762 75.4922 445.23 75.7422C444.703 75.9922 444.1 76.1172 443.42 76.1172C442.299 76.1172 441.416 75.752 440.771 75.0215C440.127 74.291 439.805 73.2598 439.805 71.9277V71.5059C439.805 70.6699 439.949 69.9395 440.238 69.3145C440.531 68.6855 440.951 68.2012 441.498 67.8613C442.045 67.5176 442.678 67.3457 443.396 67.3457C444.432 67.3457 445.264 67.6191 445.893 68.166C446.521 68.709 446.879 69.459 446.965 70.416H444.914C444.898 69.8965 444.768 69.5234 444.521 69.2969C444.275 69.0703 443.9 68.957 443.396 68.957C442.885 68.957 442.51 69.1484 442.271 69.5312C442.033 69.9141 441.908 70.5254 441.896 71.3652V71.9688C441.896 72.8789 442.01 73.5293 442.236 73.9199C442.467 74.3105 442.861 74.5059 443.42 74.5059C443.893 74.5059 444.254 74.3945 444.504 74.1719C444.754 73.9492 444.887 73.5957 444.902 73.1113H446.947ZM451.09 72.9883H449.977V76H447.92V67.4688H451.277C452.289 67.4688 453.08 67.6934 453.65 68.1426C454.221 68.5918 454.506 69.2266 454.506 70.0469C454.506 70.6406 454.385 71.1328 454.143 71.5234C453.904 71.9141 453.529 72.2305 453.018 72.4727L454.799 75.9121V76H452.596L451.09 72.9883ZM449.977 71.4004H451.277C451.668 71.4004 451.961 71.2988 452.156 71.0957C452.355 70.8887 452.455 70.6016 452.455 70.2344C452.455 69.8672 452.355 69.5801 452.156 69.373C451.957 69.1621 451.664 69.0566 451.277 69.0566H449.977V71.4004ZM457.939 76H455.889V67.4688H457.939V76ZM461.426 73.1055V76H459.369V67.4688H462.773C463.426 67.4688 464.002 67.5898 464.502 67.832C465.006 68.0703 465.395 68.4121 465.668 68.8574C465.945 69.2988 466.084 69.8008 466.084 70.3633C466.084 71.1953 465.785 71.8613 465.188 72.3613C464.594 72.8574 463.777 73.1055 462.738 73.1055H461.426ZM461.426 71.5176H462.773C463.172 71.5176 463.475 71.418 463.682 71.2188C463.893 71.0195 463.998 70.7383 463.998 70.375C463.998 69.9766 463.891 69.6582 463.676 69.4199C463.461 69.1816 463.168 69.0605 462.797 69.0566H461.426V71.5176ZM473.883 69.0566H471.322V76H469.266V69.0566H466.752V67.4688H473.883V69.0566Z" fill="black"/>
<rect x="353" y="92" width="78" height="16" fill="#C4C4C4"/>
<rect x="398" y="116" width="78" height="16" fill="#C4C4C4"/>
<rect x="353" y="140" width="78" height="16" fill="#C4C4C4"/>
<rect x="475" y="164" width="78" height="16" fill="#C4C4C4"/>
<rect x="441" y="92" width="67" height="16" fill="#C4C4C4"/>
<rect x="353" y="164" width="67" height="16" fill="#C4C4C4"/>
<rect x="486" y="140" width="67" height="16" fill="#C4C4C4"/>
<rect x="486" y="116" width="67" height="16" fill="#C4C4C4"/>
<rect x="518" y="92" width="35" height="16" fill="#C4C4C4"/>
<rect x="353" y="116" width="35" height="16" fill="#C4C4C4"/>
<rect x="441" y="140" width="35" height="16" fill="#C4C4C4"/>
<rect x="430" y="164" width="35" height="16" fill="#C4C4C4"/>
<rect x="353" y="188" width="78" height="16" fill="#C4C4C4"/>
<rect x="398" y="212" width="78" height="16" fill="#C4C4C4"/>
<rect x="353" y="236" width="78" height="16" fill="#C4C4C4"/>
<rect x="475" y="260" width="78" height="16" fill="#C4C4C4"/>
<rect x="441" y="188" width="67" height="16" fill="#C4C4C4"/>
<rect x="353" y="260" width="67" height="16" fill="#C4C4C4"/>
<rect x="486" y="236" width="67" height="16" fill="#C4C4C4"/>
<rect x="486" y="212" width="67" height="16" fill="#C4C4C4"/>
<rect x="518" y="188" width="35" height="16" fill="#C4C4C4"/>
<rect x="353" y="212" width="35" height="16" fill="#C4C4C4"/>
<rect x="441" y="236" width="35" height="16" fill="#C4C4C4"/>
<rect x="430" y="260" width="35" height="16" fill="#C4C4C4"/>
<rect x="353" y="284" width="78" height="16" fill="#C4C4C4"/>
<rect x="398" y="308" width="78" height="16" fill="#C4C4C4"/>
<rect x="353" y="332" width="78" height="16" fill="#C4C4C4"/>
<rect x="475" y="356" width="78" height="16" fill="#C4C4C4"/>
<rect x="441" y="284" width="67" height="16" fill="#C4C4C4"/>
<rect x="353" y="356" width="67" height="16" fill="#C4C4C4"/>
<rect x="486" y="332" width="67" height="16" fill="#C4C4C4"/>
<rect x="486" y="308" width="67" height="16" fill="#C4C4C4"/>
<rect x="518" y="284" width="35" height="16" fill="#C4C4C4"/>
<rect x="353" y="308" width="35" height="16" fill="#C4C4C4"/>
<rect x="441" y="332" width="35" height="16" fill="#C4C4C4"/>
<rect x="430" y="356" width="35" height="16" fill="#C4C4C4"/>
</svg>
